<?xml version="1.0" encoding="UTF-8" standalone="no"?>
<svg width="32px" height="32px" viewBox="0 0 32 32" version="1.1" xmlns="http://www.w3.org/2000/svg" xmlns:xlink="http://www.w3.org/1999/xlink" xmlns:sketch="http://www.bohemiancoding.com/sketch/ns">
    <!-- Generator: Sketch 3.3.2 (12043) - http://www.bohemiancoding.com/sketch -->
    <title>103</title>
    <desc>Created with Sketch.</desc>
    <defs></defs>
    <g id="Page-1" stroke="none" stroke-width="1" fill="none" fill-rule="evenodd" sketch:type="MSPage">
        <g id="103" sketch:type="MSLayerGroup" fill="#FFFFFF">
            <g sketch:type="MSShapeGroup">
                <path d="M12.8497719,18.8350533 L13.1726828,18.5121423 L22.0092513,9.67557382 C22.3932534,9.29157169 23.0271794,9.29081071 23.4177037,9.681335 C23.8109507,10.074582 23.8090351,10.7042172 23.4195063,11.0937459 L13.555076,20.9581762 C13.1630988,21.3501535 12.5331894,21.3468979 12.1426651,20.9563736 C12.1398955,20.953604 12.1371454,20.9508226 12.134415,20.9480296 C12.1316314,20.9453085 12.1288595,20.942568 12.1260996,20.9398081 L8.6067786,17.4204871 C8.21609902,17.0298075 8.2166069,16.3971504 8.6071312,16.0066261 C9.00037815,15.6133792 9.6306626,15.615944 10.0209922,16.0062735 L12.8497719,18.8350533 L12.8497719,18.8350533 L12.8497719,18.8350533 Z" id="Rectangle-348"></path>
                <path d="M0,2.00174332 L0,29.9982567 C0,31.103789 0.889261723,32 2.00174332,32 L29.9982567,32 C31.103789,32 32,31.1107383 32,29.9982567 L32,2.00174332 C32,0.89621101 31.1107383,0 29.9982567,0 L2.00174332,0 C0.89621101,0 0,0.889261723 0,2.00174332 L0,2.00174332 Z M29.9982567,2 C30.0026924,2 30,29.9982567 30,29.9982567 C30,30.0026924 2.00174332,30 2.00174332,30 C1.99730764,30 2,2.00174332 2,2.00174332 C2,1.99730764 29.9982567,2 29.9982567,2 L29.9982567,2 Z" id="Rectangle-577"></path>
            </g>
        </g>
    </g>
</svg>